<svg xmlns="http://www.w3.org/2000/svg" style="border: 0 !important; clip: rect(0 0 0 0) !important; height: 1px !important; margin: -1px !important; overflow: hidden !important; padding: 0 !important; position: absolute !important; width: 1px !important;" class="root-svg-symbols-element">
    <symbol id="add-cart" viewBox="0 0 40.33 42">
      <path d="M20,16h4v-6h6V6h-6V0h-4v6h-6v4h6V16z M12,34c-2.21,0-3.9799995,1.7900009-3.9799995,4S9.7900009,42,12,42s4-1.7900009,4-4	S14.2099991,34,12,34z M32,34c-2.2099991,0-3.9799995,1.7900009-3.9799995,4S29.7900009,42,32,42s4-1.7900009,4-4	S34.2099991,34,32,34z M12.3500004,27.5c0-0.0900002,0.0200005-0.1700001,0.0600004-0.2399998L14.210001,24h14.8999996	c1.5,0,2.8100014-0.8299999,3.5-2.0599995l7.7200012-14.0200005L36.8300018,6h-0.0099983l-2.2099991,4l-5.5100002,10H15.0699997	l-0.2600002-0.5400009L10.3199997,10L8.4200001,6L6.5299997,2H0v4h4l7.1999998,15.1700001l-2.71,4.8999996	C8.1799994,26.6499996,8,27.2999992,8,28c0,2.2099991,1.79,4,4,4h24v-4H12.8500004	C12.5700006,28,12.3500004,27.7800007,12.3500004,27.5z"/>
    </symbol>
    <symbol id="blocks" viewBox="0 0 23 23">
      <path d="M21.000,23.000 L15.000,23.000 C13.895,23.000 13.000,22.104 13.000,21.000 L13.000,15.000 C13.000,13.895 13.895,13.000 15.000,13.000 L21.000,13.000 C22.105,13.000 23.000,13.895 23.000,15.000 L23.000,21.000 C23.000,22.104 22.105,23.000 21.000,23.000 ZM21.000,10.000 L15.000,10.000 C13.895,10.000 13.000,9.104 13.000,8.000 L13.000,2.000 C13.000,0.895 13.895,-0.000 15.000,-0.000 L21.000,-0.000 C22.105,-0.000 23.000,0.895 23.000,2.000 L23.000,8.000 C23.000,9.104 22.105,10.000 21.000,10.000 ZM8.000,23.000 L2.000,23.000 C0.895,23.000 -0.000,22.104 -0.000,21.000 L-0.000,15.000 C-0.000,13.895 0.895,13.000 2.000,13.000 L8.000,13.000 C9.105,13.000 10.000,13.895 10.000,15.000 L10.000,21.000 C10.000,22.104 9.105,23.000 8.000,23.000 ZM8.000,10.000 L2.000,10.000 C0.895,10.000 -0.000,9.104 -0.000,8.000 L-0.000,2.000 C-0.000,0.895 0.895,-0.000 2.000,-0.000 L8.000,-0.000 C9.105,-0.000 10.000,0.895 10.000,2.000 L10.000,8.000 C10.000,9.104 9.105,10.000 8.000,10.000 Z"/>
    </symbol>
    <symbol id="cards" viewBox="0 0 18 18">
      <path d="M11,0.0000155h6c0.5522995,0,1,0.4477,1,1.0001v5.9999003c0,0.5523-0.4477005,0.9999995-1,0.9999995h-6	c-0.5523996,0-1-0.4476995-1-0.9999995V1.0001155C10,0.4477155,10.4476004,0.0000155,11,0.0000155z M11,10.0000153h6	c0.5522995,0,1,0.4477005,1,1v6.0001011c0,0.5521984-0.4477005,0.9998989-1,0.9998989h-6c-0.5523996,0-1-0.4477005-1-0.9998989	v-6.0001011C10,10.4477158,10.4476004,10.0000153,11,10.0000153z M0.9999,0.0000155H7	c0.5521998,0,0.9998999,0.4477,0.9998999,1.0001v5.9999003c0,0.5523-0.4477,0.9999995-0.9998999,0.9999995H0.9999	C0.4477,8.0000153,0,7.5523157,0,7.0000157V1.0001155C0,0.4477155,0.4477,0.0000155,0.9999,0.0000155z M0.9999,10.0000153H7	c0.5521998,0,0.9998999,0.4477005,0.9998999,1v6.0001011c0,0.5521984-0.4477,0.9998989-0.9998999,0.9998989H0.9999	c-0.5522,0-0.9999-0.4477005-0.9999-0.9998989v-6.0001011C0,10.4477158,0.4477,10.0000153,0.9999,10.0000153z" fill-rule="evenodd" clip-rule="evenodd"/>
    </symbol>
    <symbol id="cart" viewBox="0 0 40.33 42">
      <path d="M20,16h4v-6h6V6h-6V0h-4v6h-6v4h6V16z M12,34c-2.21,0-3.9799995,1.7900009-3.9799995,4S9.7900009,42,12,42s4-1.7900009,4-4	S14.2099991,34,12,34z M32,34c-2.2099991,0-3.9799995,1.7900009-3.9799995,4S29.7900009,42,32,42s4-1.7900009,4-4	S34.2099991,34,32,34z M12.3500004,27.5c0-0.0900002,0.0200005-0.1700001,0.0600004-0.2399998L14.210001,24h14.8999996	c1.5,0,2.8100014-0.8299999,3.5-2.0599995l7.7200012-14.0200005L36.8300018,6h-0.0099983l-2.2099991,4l-5.5100002,10H15.0699997	l-0.2600002-0.5400009L10.3199997,10L8.4200001,6L6.5299997,2H0v4h4l7.1999998,15.1700001l-2.71,4.8999996	C8.1799994,26.6499996,8,27.2999992,8,28c0,2.2099991,1.79,4,4,4h24v-4H12.8500004	C12.5700006,28,12.3500004,27.7800007,12.3500004,27.5z"/>
    </symbol>
    <symbol id="dot" viewBox="0 0 12 11">
      <path fill-rule="evenodd" fill="#F79436" d="M5.978,11.000 C4.594,8.768 2.711,6.887 0.479,5.505 C2.716,4.119 4.602,2.231 5.986,-0.007 C7.369,2.227 9.252,4.111 11.486,5.493 C9.249,6.878 7.362,8.763 5.978,11.000 Z"/>
    </symbol>
    <symbol id="list-1" viewBox="0 0 23 23">
      <path d="M21.000,23.000 L10.000,23.000 C8.895,23.000 8.000,22.104 8.000,21.000 L8.000,20.000 C8.000,18.895 8.895,18.000 10.000,18.000 L21.000,18.000 C22.104,18.000 23.000,18.895 23.000,20.000 L23.000,21.000 C23.000,22.104 22.104,23.000 21.000,23.000 ZM21.000,14.000 L10.000,14.000 C8.895,14.000 8.000,13.105 8.000,12.000 L8.000,11.000 C8.000,9.895 8.895,9.000 10.000,9.000 L21.000,9.000 C22.104,9.000 23.000,9.895 23.000,11.000 L23.000,12.000 C23.000,13.105 22.104,14.000 21.000,14.000 ZM21.000,5.000 L10.000,5.000 C8.895,5.000 8.000,4.104 8.000,3.000 L8.000,2.000 C8.000,0.895 8.895,-0.000 10.000,-0.000 L21.000,-0.000 C22.104,-0.000 23.000,0.895 23.000,2.000 L23.000,3.000 C23.000,4.104 22.104,5.000 21.000,5.000 ZM3.000,23.000 L2.000,23.000 C0.895,23.000 -0.000,22.104 -0.000,21.000 L-0.000,20.000 C-0.000,18.895 0.895,18.000 2.000,18.000 L3.000,18.000 C4.104,18.000 5.000,18.895 5.000,20.000 L5.000,21.000 C5.000,22.104 4.104,23.000 3.000,23.000 ZM3.000,14.000 L2.000,14.000 C0.895,14.000 -0.000,13.105 -0.000,12.000 L-0.000,11.000 C-0.000,9.895 0.895,9.000 2.000,9.000 L3.000,9.000 C4.104,9.000 5.000,9.895 5.000,11.000 L5.000,12.000 C5.000,13.105 4.104,14.000 3.000,14.000 ZM3.000,5.000 L2.000,5.000 C0.895,5.000 -0.000,4.104 -0.000,3.000 L-0.000,2.000 C-0.000,0.895 0.895,-0.000 2.000,-0.000 L3.000,-0.000 C4.104,-0.000 5.000,0.895 5.000,2.000 L5.000,3.000 C5.000,4.104 4.104,5.000 3.000,5.000 Z"/>
    </symbol>
    <symbol id="list-2" viewBox="0 0 23 23">
      <path d="M21.000,23.000 L20.000,23.000 C18.895,23.000 18.000,22.104 18.000,21.000 L18.000,20.000 C18.000,18.895 18.895,18.000 20.000,18.000 L21.000,18.000 C22.105,18.000 23.000,18.895 23.000,20.000 L23.000,21.000 C23.000,22.104 22.105,23.000 21.000,23.000 ZM21.000,14.000 L20.000,14.000 C18.895,14.000 18.000,13.105 18.000,12.000 L18.000,11.000 C18.000,9.895 18.895,9.000 20.000,9.000 L21.000,9.000 C22.105,9.000 23.000,9.895 23.000,11.000 L23.000,12.000 C23.000,13.105 22.105,14.000 21.000,14.000 ZM21.000,5.000 L20.000,5.000 C18.895,5.000 18.000,4.104 18.000,3.000 L18.000,2.000 C18.000,0.895 18.895,-0.000 20.000,-0.000 L21.000,-0.000 C22.105,-0.000 23.000,0.895 23.000,2.000 L23.000,3.000 C23.000,4.104 22.105,5.000 21.000,5.000 ZM14.000,23.000 L9.000,23.000 C7.895,23.000 7.000,22.104 7.000,21.000 L7.000,20.000 C7.000,18.895 7.895,18.000 9.000,18.000 L14.000,18.000 C15.105,18.000 16.000,18.895 16.000,20.000 L16.000,21.000 C16.000,22.104 15.105,23.000 14.000,23.000 ZM14.000,14.000 L9.000,14.000 C7.895,14.000 7.000,13.105 7.000,12.000 L7.000,11.000 C7.000,9.895 7.895,9.000 9.000,9.000 L14.000,9.000 C15.105,9.000 16.000,9.895 16.000,11.000 L16.000,12.000 C16.000,13.105 15.105,14.000 14.000,14.000 ZM14.000,5.000 L9.000,5.000 C7.895,5.000 7.000,4.104 7.000,3.000 L7.000,2.000 C7.000,0.895 7.895,-0.000 9.000,-0.000 L14.000,-0.000 C15.105,-0.000 16.000,0.895 16.000,2.000 L16.000,3.000 C16.000,4.104 15.105,5.000 14.000,5.000 ZM3.000,23.000 L2.000,23.000 C0.895,23.000 -0.000,22.104 -0.000,21.000 L-0.000,20.000 C-0.000,18.895 0.895,18.000 2.000,18.000 L3.000,18.000 C4.104,18.000 5.000,18.895 5.000,20.000 L5.000,21.000 C5.000,22.104 4.104,23.000 3.000,23.000 ZM3.000,14.000 L2.000,14.000 C0.895,14.000 -0.000,13.105 -0.000,12.000 L-0.000,11.000 C-0.000,9.895 0.895,9.000 2.000,9.000 L3.000,9.000 C4.104,9.000 5.000,9.895 5.000,11.000 L5.000,12.000 C5.000,13.105 4.104,14.000 3.000,14.000 ZM3.000,5.000 L2.000,5.000 C0.895,5.000 -0.000,4.104 -0.000,3.000 L-0.000,2.000 C-0.000,0.895 0.895,-0.000 2.000,-0.000 L3.000,-0.000 C4.104,-0.000 5.000,0.895 5.000,2.000 L5.000,3.000 C5.000,4.104 4.104,5.000 3.000,5.000 Z"/>
    </symbol>
    <symbol id="menu" viewBox="0 0 20 18">
      <path d="M20.0000153,1.0001221V3c0,0.5524292-0.4478149,1.0001221-1.0001221,1.0001221h-11	C7.4475856,4.0001221,7.0000148,3.5524292,7.0000148,3V1.0001221C7.0000148,0.4476929,7.4475856,0,7.9998927,0h11	C19.5522003,0,20.0000153,0.4476929,20.0000153,1.0001221z M18.9998932,7h-11C7.4475856,7,7.0000148,7.4478149,7.0000148,8v2	c0,0.5523071,0.4475708,1,0.9998779,1h11c0.5523071,0,1.0001221-0.4476929,1.0001221-1V8	C20.0000153,7.4478149,19.5522003,7,18.9998932,7z M18.9998932,14.0001221h-11	c-0.5523071,0-0.9998779,0.4476929-0.9998779,0.9998779v2.0001221C7.0000148,17.5523071,7.4475856,18,7.9998927,18h11	c0.5523071,0,1.0001221-0.4476929,1.0001221-0.9998779V15C20.0000153,14.4478149,19.5522003,14.0001221,18.9998932,14.0001221z M2.9998925,0h-2C0.4475854,0,0.0000146,0.4476929,0.0000146,1.0001221V3c0,0.5524292,0.4475708,1.0001221,0.9998779,1.0001221h2	c0.5523071,0,1-0.4476929,1-1.0001221V1.0001221C3.9998925,0.4476929,3.5521996,0,2.9998925,0z M2.9998925,7h-2	C0.4475854,7,0.0000146,7.4478149,0.0000146,8v2c0,0.5523071,0.4475708,1,0.9998779,1h2c0.5523071,0,1-0.4476929,1-1V8	C3.9998925,7.4478149,3.5521996,7,2.9998925,7z M2.9998925,14.0001221h-2c-0.5523071,0-0.9998779,0.4476929-0.9998779,0.9998779	v2.0001221C0.0000146,17.5523071,0.4475854,18,0.9998925,18h2c0.5523071,0,1-0.4476929,1-0.9998779V15	C3.9998925,14.4478149,3.5521996,14.0001221,2.9998925,14.0001221z" fill-rule="evenodd" clip-rule="evenodd"/>
    </symbol>
    <symbol id="minus" viewBox="0 0 20 1">
      <path class="cls-1" d="M1132,576v-1h20v1h-20Z" transform="translate(-1132 -575)"/>
    </symbol>
    <symbol id="pen" viewBox="0 0 100 100">
      <path d="M1648.016 305.367L1390.795 48.149C1359.747 17.098 1318.466 0 1274.555 0c-43.907 0-85.188 17.098-116.236 48.148L81.585 1124.866a66.06 66.06 0 00-18.75 37.833L.601 1621.186a66.067 66.067 0 0018.753 55.605 66.068 66.068 0 0055.605 18.751l458.488-62.231a66.062 66.062 0 0037.835-18.752L1648.016 537.844c31.049-31.048 48.146-72.33 48.146-116.237 0-43.911-17.098-85.192-48.146-116.24zM493.598 1505.366l-350.381 47.558 47.56-350.376L953.78 439.557l302.818 302.819-763 762.99zM1554.575 444.404l-204.536 204.533-302.821-302.818 204.535-204.532c8.22-8.218 17.814-9.446 22.802-9.446 4.988 0 14.582 1.228 22.803 9.446l257.221 257.218c8.217 8.217 9.443 17.812 9.443 22.799s-1.227 14.582-9.447 22.8z"/>
    </symbol>
    <symbol id="plus" viewBox="0 0 20 20">
      <path d="M1228,576v-1h20v1h-20Zm9.5-10.5h1v20h-1v-20Z" transform="translate(-1228 -565.5)"/>
    </symbol></svg>