<svg version="1.1" id="Layer_1" xmlns="http://www.w3.org/2000/svg" x="0" y="0" viewBox="0 0 137.7 92.6" xml:space="preserve"><g id="XMLID_1_"><g id="XMLID_762_" fill="#24356F"><path id="XMLID_759_" d="M19.9,71.8H7.6L5,77.1H0L12.7,51h2.1l12.7,26.1h-4.9L19.9,71.8z M13.8,57.8L9,68.1h9.4 L13.8,57.8z"/><path id="XMLID_757_" d="M40.2,73.3l-5.7-6.1v10h-4V59.3h1.3l8.4,8.9l8.4-8.9h1.3v17.8h-4v-10L40.2,73.3z"/><path id="XMLID_754_" d="M63.9,58.9c3.2,0,5.5,0.9,7,2.8c1.4,1.8,1.8,4.3,1.2,7.3H58.4c0,1.6,0.6,2.8,1.7,3.7 c1.1,0.9,2.6,1.4,4.3,1.4c2.5,0.1,4.7-0.2,6.7-1.1l0.5,3c-2.4,1-4.7,1.5-7,1.5c-3.1,0-5.6-0.8-7.6-2.6c-2-1.8-2.9-4.1-2.8-7 c0.1-2.8,1-5,2.8-6.6C59,59.7,61.3,58.9,63.9,58.9z M63.9,62c-3,0-4.8,1.4-5.4,4.1h10.2c0.1-1.3-0.4-2.3-1.3-3 C66.5,62.4,65.3,62,63.9,62z"/><path id="XMLID_752_" d="M105.9,77.5c-2.4,0-4.2-0.7-5.3-2.2c-1.1-1.4-1.7-3.3-1.7-5.6v-5.3c0-0.9-0.1-1.6-0.4-1.9 c-0.3-0.4-0.9-0.5-1.8-0.4c0-0.2,0-0.7,0-1.4c0-0.7,0-1.1,0-1.4c4.4-0.9,6.5,0.5,6.5,4.1v6.3c0,1.4,0.3,2.5,1.1,3.3 c0.7,0.8,1.7,1.3,2.9,1.3c1.4,0,2.5-0.4,3.4-1.3c0.9-0.9,1.3-2,1.3-3.4V59.3h4.2V72c0,1.1,0.1,1.9,0.3,2.2 c0.2,0.3,0.8,0.5,1.6,0.4l0,2.6c-0.6,0.1-1.2,0.2-1.5,0.2c-0.4,0-0.9,0.1-1.4,0c-0.6,0-1-0.2-1.3-0.4c-0.3-0.2-0.6-0.5-0.9-1 c-0.3-0.5-0.4-1.1-0.4-1.8C111.3,76.4,109.1,77.5,105.9,77.5z"/><g id="XMLID_4_"><path id="XMLID_13_" d="M128.4,59.3c-2,0-3.5,0.6-4.7,1.8c-1.2,1.1-1.8,2.6-1.8,4.2c0,1.2,0.4,2.3,1.1,3.3 c0.7,1,1.7,1.7,2.9,2.1c0,0,0,0,0.1,0c-0.2,0.2-0.3,0.5-0.5,0.7l-0.1,0.2l-0.1,0.1c-0.1,0.1-0.1,0.2-0.2,0.3 c-0.2,0.2-0.4,0.4-0.5,0.6c-0.8,0.7-1.7,1.2-2.5,1.4c-0.4,0.1-0.7,0.2-0.9,0.2c-0.1,0-0.2,0-0.3,0c0,0-0.1,0-0.1,0c0,0,0,0,0,0 l0,0l0,0h0v1.6v1.6h0h0l0,0c0,0,0,0,0,0c0,0,0.1,0,0.1,0c0.1,0,0.2,0,0.4,0c0.4,0,0.9,0,1.5-0.1c1.2-0.2,2.8-0.8,4.1-1.9 c0.3-0.3,0.6-0.6,0.9-0.9c0.1-0.1,0.3-0.3,0.4-0.5l0.2-0.3l0.1-0.2l0.1-0.2l0.2-0.2c0.1-0.1,0.2-0.3,0.2-0.4 c0.2-0.2,0.3-0.5,0.4-0.7c0.2-0.3,0.3-0.5,0.4-0.7c0.4,0,0.9,0,1.4,0c1.6,0,2.1,0,2.1,0v5.7v0h4.2V59.3H128.4z M129.5,68.2 c-1.1,0-1.9-0.3-2.6-0.8c-0.7-0.5-1-1.2-1-2c0-0.9,0.3-1.6,1-2.1c0.7-0.6,1.5-0.8,2.6-0.8h3.9v5.8H129.5z"/><path id="XMLID_20_" d="M120.6 77.5L120.6 75.8 120.6 74.2z"/></g><path id="XMLID_3_" d="M88.9,59.3H82c0,0-2.4,8.1-3,10.5c-0.1,0.6-0.3,1.1-0.4,1.7c-0.1,0.4-0.3,0.7-0.5,1.1 c-0.4,0.6-1,1.1-1.6,1.4c-0.3,0.1-0.6,0.2-0.8,0.3c-0.1,0-0.1,0.1-0.3,0.1c-0.1,0-0.2,0-0.2,0l-0.1,0l0,0c0,0,0.1,0,0.1,0l0,0l0,0 l0,0l-0.1,0c-0.5,0-0.8,0.1-0.8,0.1v3c0,0,0.3,0,0.8,0.1c0.2,0,0.3,0,0.5,0c0.1,0,0.4,0,0.7,0c0.5,0,1-0.2,1.6-0.4 c1.1-0.4,2.4-1.2,3.3-2.4c0.5-0.6,0.9-1.3,1.1-2.1c0.2-0.4,0.2-0.6,0.3-0.9l0.3-0.9c0.7-2.3,2.3-8.1,2.3-8.1h3.8v14.4h4.2V59.3 H88.9z"/></g><g id="XMLID_2_" fill="#002D74"><path id="XMLID_23_" d="M25.9,87.3h-0.6c0-0.5,0.2-0.8,0.5-1.1c0.4-0.2,0.8-0.4,1.3-0.4c0.5,0,1,0.1,1.3,0.4 c0.3,0.3,0.5,0.7,0.5,1.1c0,0.3-0.1,0.5-0.2,0.7c-0.2,0.2-0.4,0.4-0.6,0.5c0.4,0.1,0.7,0.3,0.9,0.6c0.2,0.3,0.3,0.6,0.3,1 c0,0.5-0.2,1-0.6,1.3c-0.4,0.3-0.9,0.5-1.6,0.5c-0.6,0-1.1-0.2-1.5-0.5c-0.4-0.3-0.6-0.8-0.6-1.3h0.6c0,0.4,0.1,0.7,0.4,0.9 c0.3,0.2,0.6,0.3,1,0.3c0.4,0,0.8-0.1,1.1-0.3c0.3-0.2,0.4-0.5,0.4-0.9c0-0.4-0.1-0.6-0.4-0.8c-0.3-0.2-0.6-0.3-1-0.3h-0.4v-0.6 h0.4c0.3,0,0.6-0.1,0.9-0.3c0.2-0.2,0.4-0.4,0.4-0.7c0-0.3-0.1-0.6-0.4-0.7c-0.2-0.2-0.5-0.3-0.9-0.3c-0.3,0-0.6,0.1-0.9,0.2 C26,86.7,25.9,87,25.9,87.3z"/><path id="XMLID_27_" d="M34.5,90.2h-3l-0.7,1.4h-0.7v-0.1l2.8-5.6h0.3l2.7,5.6v0.1h-0.7L34.5,90.2z M33,87 l-1.2,2.7h2.5L33,87z"/><path id="XMLID_30_" d="M37.8,86.5v1.7h1.7c0.7,0,1.2,0.2,1.5,0.5c0.4,0.3,0.5,0.7,0.5,1.2c0,0.5-0.2,0.9-0.5,1.3 c-0.4,0.3-0.9,0.5-1.5,0.5h-2.4v-5.7H41v0.6H37.8z M39.4,88.8h-1.7V91h1.7c0.4,0,0.8-0.1,1-0.3c0.2-0.2,0.4-0.5,0.4-0.8 c0-0.3-0.1-0.6-0.4-0.8S39.9,88.8,39.4,88.8z"/><path id="XMLID_33_" d="M48.6,88.8c0,0.9-0.3,1.6-0.8,2.1c-0.6,0.5-1.3,0.8-2.2,0.8c-0.9,0-1.6-0.3-2.1-0.8 c-0.6-0.5-0.9-1.3-0.9-2.1c0-0.9,0.3-1.6,0.9-2.1c0.6-0.5,1.3-0.8,2.1-0.8c0.9,0,1.6,0.3,2.1,0.8C48.3,87.2,48.6,87.9,48.6,88.8z M43.3,88.8c0,0.7,0.2,1.2,0.7,1.7c0.4,0.4,1,0.6,1.6,0.6c0.7,0,1.2-0.2,1.6-0.6c0.4-0.4,0.7-1,0.7-1.7c0-0.7-0.2-1.2-0.7-1.7 c-0.4-0.4-1-0.7-1.6-0.7c-0.7,0-1.2,0.2-1.6,0.6C43.5,87.5,43.3,88.1,43.3,88.8z"/><path id="XMLID_36_" d="M51,86.6h-1.8v-0.6h4.3v0.6h-1.8v5.1H51V86.6z"/><path id="XMLID_38_" d="M57.9,90.2h-3l-0.7,1.4h-0.7v-0.1l2.8-5.6h0.3l2.7,5.6v0.1h-0.7L57.9,90.2z M56.5,87 l-1.2,2.7h2.5L56.5,87z"/><path id="XMLID_41_" d="M68.4,88.8c0,0.9-0.3,1.6-0.8,2.1c-0.6,0.5-1.3,0.8-2.2,0.8c-0.9,0-1.6-0.3-2.1-0.8 c-0.6-0.5-0.9-1.3-0.9-2.1c0-0.9,0.3-1.6,0.9-2.1c0.6-0.5,1.3-0.8,2.1-0.8c0.9,0,1.6,0.3,2.1,0.8C68.2,87.2,68.4,87.9,68.4,88.8z M63.1,88.8c0,0.7,0.2,1.2,0.7,1.7c0.4,0.4,1,0.6,1.6,0.6c0.7,0,1.2-0.2,1.6-0.6c0.4-0.4,0.7-1,0.7-1.7c0-0.7-0.2-1.2-0.7-1.7 c-0.4-0.4-1-0.7-1.6-0.7c-0.7,0-1.2,0.2-1.6,0.6C63.4,87.5,63.1,88.1,63.1,88.8z"/><path id="XMLID_44_" d="M72.9,85.9v2.6c0.7,0,1.2-0.1,1.3-0.2c0.3-0.2,0.5-0.6,0.7-1.4c0.1-0.4,0.3-0.7,0.6-0.9 c0.3-0.2,0.6-0.2,1.2-0.1v0.5c-0.3,0-0.6,0-0.7,0.1c-0.2,0.1-0.3,0.3-0.4,0.7c-0.2,0.8-0.5,1.3-0.8,1.5l2.1,2.8v0.1h-0.8L74.2,89 c-0.2,0.1-0.7,0.1-1.3,0.1v2.5h-0.7v-5.7H72.9z"/><path id="XMLID_46_" d="M82.1,90.2h-3l-0.7,1.4h-0.7v-0.1l2.8-5.6h0.3l2.7,5.6v0.1h-0.7L82.1,90.2z M80.6,87 l-1.2,2.7h2.5L80.6,87z"/><path id="XMLID_49_" d="M92.3,91.6h-0.8c-0.1-0.1-0.4-0.5-0.8-1.2c-0.5-0.6-0.8-1.1-1-1.5 c-0.2,0.1-0.6,0.2-0.9,0.2v2.5H88v-2.5c-0.4,0-0.7-0.1-0.9-0.2c-0.4,0.6-1,1.5-1.9,2.6h-0.8v-0.1c0.3-0.3,0.6-0.8,1.1-1.5 c0.5-0.6,0.8-1.1,1-1.3c-0.3-0.3-0.6-0.8-0.8-1.5c-0.1-0.3-0.2-0.5-0.4-0.6c-0.2-0.1-0.4-0.2-0.7-0.1V86c0.5-0.1,0.9,0,1.2,0.1 c0.3,0.2,0.5,0.5,0.6,0.9c0.1,0.2,0.1,0.4,0.1,0.5c0,0.1,0.1,0.3,0.2,0.5c0.1,0.2,0.2,0.3,0.4,0.4c0.2,0.1,0.6,0.2,1,0.2v-2.6h0.7 v2.6c0.4,0,0.7-0.1,1-0.2c0,0,0.1-0.1,0.1-0.1c0,0,0.1-0.1,0.1-0.1c0,0,0.1-0.1,0.1-0.1c0-0.1,0.1-0.1,0.1-0.1c0,0,0-0.1,0.1-0.2 c0-0.1,0-0.1,0.1-0.2c0,0,0-0.1,0.1-0.2c0-0.1,0-0.1,0-0.1c0,0,0-0.1,0-0.2c0-0.1,0-0.1,0-0.1c0.1-0.5,0.3-0.8,0.6-0.9 c0.3-0.2,0.7-0.2,1.2-0.1v0.5c-0.3,0-0.6,0-0.7,0.1c-0.2,0.1-0.3,0.3-0.4,0.6c-0.1,0.3-0.1,0.5-0.2,0.6c-0.1,0.1-0.1,0.3-0.2,0.5 c-0.1,0.2-0.2,0.3-0.4,0.4C91.6,90.5,92.3,91.4,92.3,91.6L92.3,91.6z"/><path id="XMLID_51_" d="M93.2,91.1h0.2c0.3,0,0.5-0.1,0.6-0.2c0.1-0.1,0.2-0.4,0.2-0.7l0.5-4.2h3.5v5.1h0.6v1.5 h-0.6v-0.9h-4.4v0.9h-0.6V91.1z M95.3,86.5l-0.4,3.6c-0.1,0.5-0.2,0.8-0.4,0.9h3v-4.5H95.3z"/><path id="XMLID_54_" d="M105.8,88.8c0,0.9-0.3,1.6-0.8,2.1c-0.6,0.5-1.3,0.8-2.2,0.8c-0.9,0-1.6-0.3-2.1-0.8 c-0.6-0.5-0.9-1.3-0.9-2.1c0-0.9,0.3-1.6,0.9-2.1c0.6-0.5,1.3-0.8,2.1-0.8c0.9,0,1.6,0.3,2.1,0.8 C105.5,87.2,105.8,87.9,105.8,88.8z M100.4,88.8c0,0.7,0.2,1.2,0.7,1.7c0.4,0.4,1,0.6,1.6,0.6c0.7,0,1.2-0.2,1.6-0.6 c0.4-0.4,0.7-1,0.7-1.7c0-0.7-0.2-1.2-0.7-1.7c-0.4-0.4-1-0.7-1.6-0.7c-0.7,0-1.2,0.2-1.6,0.6C100.7,87.5,100.4,88.1,100.4,88.8z"/><path id="XMLID_57_" d="M109.9,89.1l2.4-3.2h0.3v5.7h-0.7v-4.1l-2,2.6h-0.1l-2-2.6v4.1h-0.7v-5.7h0.3L109.9,89.1z"/></g><g id="XMLID_69_"><path id="XMLID_253_" fill="#24356F" d="M86.7,31.5c0,0-0.7-0.1-2.8-0.1c-4.3,0-8.6,1.6-11.4,4.2c-0.8,0.8-1.6,1.7-2.2,2.7v-9.7 c1.5,1.4,3.4,2.2,5.6,2.2c4.6,0,8.3-3.7,8.3-8.3c0-3-1.6-5.6-4-7.1c2.4-1.5,4-4.1,4-7.1c0-4.6-3.7-8.3-8.3-8.3c-3,0-5.6,1.6-7.1,4 c-1.5-2.4-4.1-4-7.1-4c-4.6,0-8.3,3.7-8.3,8.3c0,3,1.6,5.6,4,7.1c-2.4,1.5-4,4.1-4,7.1c0,4.6,3.7,8.3,8.3,8.3 c2.2,0,4.1-0.8,5.6-2.2v9.7c-0.5-0.8-1-1.5-1.6-2.1c-2.9-3-7.5-4.8-12-4.8c-2.4,0-2.8,0.1-2.8,0.1s-0.1,0.7-0.1,2.8 c0,4.5,1.8,9.2,4.8,12c2.8,2.7,6.8,4.1,11.4,4.2l0.6,0l2.4,0l0.6,0c5-0.1,9.2-1.8,12-4.8c2.7-2.8,4.2-7.2,4.2-11.4 C86.9,32.1,86.7,31.5,86.7,31.5z"/><path id="XMLID_252_" fill="#24356F" d="M75.9,2.9c3,0,5.4,2.4,5.4,5.4c0,3-2.4,5.4-5.4,5.4c-3,0-5.4-2.4-5.4-5.4 C70.5,5.3,72.9,2.9,75.9,2.9z"/><path id="XMLID_240_" fill="#24356F" d="M75.9,17.1c3,0,5.4,2.4,5.4,5.4c0,3-2.4,5.4-5.4,5.4c-3,0-5.4-2.4-5.4-5.4 C70.5,19.5,72.9,17.1,75.9,17.1z"/><path id="XMLID_232_" fill="#24356F" d="M61.8,27.9c-3,0-5.4-2.4-5.4-5.4c0-3,2.4-5.4,5.4-5.4c3,0,5.4,2.4,5.4,5.4 C67.2,25.4,64.7,27.9,61.8,27.9z"/><path id="XMLID_231_" fill="#24356F" d="M61.8,13.7c-3,0-5.4-2.4-5.4-5.4c0-3,2.4-5.4,5.4-5.4c3,0,5.4,2.4,5.4,5.4 C67.2,11.3,64.7,13.7,61.8,13.7z"/><path id="XMLID_102_" fill="#F39328" d="M68.8,18.1c-0.7-1.1-1.6-2-2.7-2.7c1.1-0.7,2-1.6,2.7-2.7c0.7,1.1,1.6,2,2.7,2.7 C70.4,16.1,69.5,17,68.8,18.1z"/><g id="XMLID_99_" fill="#8BB026"><path id="XMLID_101_" d="M57.6,44.3c-2.5-2.3-3.8-5.7-3.9-10c4.2,0.1,7.7,1.4,10,3.9c2.2,2.3,3.4,5.6,3.5,9.6 C63.2,47.6,59.9,46.5,57.6,44.3z"/><path id="XMLID_100_" d="M80.6,43.8c-2.3,2.5-5.8,3.8-10,3.9c0.1-4.2,1.4-7.7,3.9-10c2.3-2.2,5.6-3.4,9.6-3.5 C83.9,38.2,82.7,41.5,80.6,43.8z"/></g><g id="XMLID_73_" fill="#FFF"><path id="XMLID_98_" d="M75.9,2.9c3,0,5.4,2.4,5.4,5.4c0,3-2.4,5.4-5.4,5.4c-3,0-5.4-2.4-5.4-5.4 C70.5,5.3,72.9,2.9,75.9,2.9z"/><path id="XMLID_96_" d="M75.9,17.1c3,0,5.4,2.4,5.4,5.4c0,3-2.4,5.4-5.4,5.4c-3,0-5.4-2.4-5.4-5.4 C70.5,19.5,72.9,17.1,75.9,17.1z"/><path id="XMLID_75_" d="M61.8,27.9c-3,0-5.4-2.4-5.4-5.4c0-3,2.4-5.4,5.4-5.4c3,0,5.4,2.4,5.4,5.4 C67.2,25.4,64.7,27.9,61.8,27.9z"/><path id="XMLID_74_" d="M61.8,13.7c-3,0-5.4-2.4-5.4-5.4c0-3,2.4-5.4,5.4-5.4c3,0,5.4,2.4,5.4,5.4 C67.2,11.3,64.7,13.7,61.8,13.7z"/></g></g></g></svg>