<svg xmlns="http://www.w3.org/2000/svg" width="23" height="23" viewBox="0 0 23 23"><path d="M21.000,23.000 L15.000,23.000 C13.895,23.000 13.000,22.104 13.000,21.000 L13.000,15.000 C13.000,13.895 13.895,13.000 15.000,13.000 L21.000,13.000 C22.105,13.000 23.000,13.895 23.000,15.000 L23.000,21.000 C23.000,22.104 22.105,23.000 21.000,23.000 ZM21.000,10.000 L15.000,10.000 C13.895,10.000 13.000,9.104 13.000,8.000 L13.000,2.000 C13.000,0.895 13.895,-0.000 15.000,-0.000 L21.000,-0.000 C22.105,-0.000 23.000,0.895 23.000,2.000 L23.000,8.000 C23.000,9.104 22.105,10.000 21.000,10.000 ZM8.000,23.000 L2.000,23.000 C0.895,23.000 -0.000,22.104 -0.000,21.000 L-0.000,15.000 C-0.000,13.895 0.895,13.000 2.000,13.000 L8.000,13.000 C9.105,13.000 10.000,13.895 10.000,15.000 L10.000,21.000 C10.000,22.104 9.105,23.000 8.000,23.000 ZM8.000,10.000 L2.000,10.000 C0.895,10.000 -0.000,9.104 -0.000,8.000 L-0.000,2.000 C-0.000,0.895 0.895,-0.000 2.000,-0.000 L8.000,-0.000 C9.105,-0.000 10.000,0.895 10.000,2.000 L10.000,8.000 C10.000,9.104 9.105,10.000 8.000,10.000 Z"/></svg>