<svg version="1.1" id="Слой_1" xmlns="http://www.w3.org/2000/svg" x="0" y="0" viewBox="0 0 18 18" xml:space="preserve"><path d="M11,0.0000155h6c0.5522995,0,1,0.4477,1,1.0001v5.9999003c0,0.5523-0.4477005,0.9999995-1,0.9999995h-6	c-0.5523996,0-1-0.4476995-1-0.9999995V1.0001155C10,0.4477155,10.4476004,0.0000155,11,0.0000155z M11,10.0000153h6	c0.5522995,0,1,0.4477005,1,1v6.0001011c0,0.5521984-0.4477005,0.9998989-1,0.9998989h-6c-0.5523996,0-1-0.4477005-1-0.9998989	v-6.0001011C10,10.4477158,10.4476004,10.0000153,11,10.0000153z M0.9999,0.0000155H7	c0.5521998,0,0.9998999,0.4477,0.9998999,1.0001v5.9999003c0,0.5523-0.4477,0.9999995-0.9998999,0.9999995H0.9999	C0.4477,8.0000153,0,7.5523157,0,7.0000157V1.0001155C0,0.4477155,0.4477,0.0000155,0.9999,0.0000155z M0.9999,10.0000153H7	c0.5521998,0,0.9998999,0.4477005,0.9998999,1v6.0001011c0,0.5521984-0.4477,0.9998989-0.9998999,0.9998989H0.9999	c-0.5522,0-0.9999-0.4477005-0.9999-0.9998989v-6.0001011C0,10.4477158,0.4477,10.0000153,0.9999,10.0000153z" fill-rule="evenodd" clip-rule="evenodd"/></svg>