<svg xmlns="http://www.w3.org/2000/svg" viewBox="0 0 40.33 42"><path d="M20,16h4v-6h6V6h-6V0h-4v6h-6v4h6V16z M12,34c-2.21,0-3.9799995,1.7900009-3.9799995,4S9.7900009,42,12,42s4-1.7900009,4-4	S14.2099991,34,12,34z M32,34c-2.2099991,0-3.9799995,1.7900009-3.9799995,4S29.7900009,42,32,42s4-1.7900009,4-4	S34.2099991,34,32,34z M12.3500004,27.5c0-0.0900002,0.0200005-0.1700001,0.0600004-0.2399998L14.210001,24h14.8999996	c1.5,0,2.8100014-0.8299999,3.5-2.0599995l7.7200012-14.0200005L36.8300018,6h-0.0099983l-2.2099991,4l-5.5100002,10H15.0699997	l-0.2600002-0.5400009L10.3199997,10L8.4200001,6L6.5299997,2H0v4h4l7.1999998,15.1700001l-2.71,4.8999996	C8.1799994,26.6499996,8,27.2999992,8,28c0,2.2099991,1.79,4,4,4h24v-4H12.8500004	C12.5700006,28,12.3500004,27.7800007,12.3500004,27.5z"/></svg>