<svg xmlns="http://www.w3.org/2000/svg" width="23" height="23" viewBox="0 0 23 23"><path d="M21.000,23.000 L20.000,23.000 C18.895,23.000 18.000,22.104 18.000,21.000 L18.000,20.000 C18.000,18.895 18.895,18.000 20.000,18.000 L21.000,18.000 C22.105,18.000 23.000,18.895 23.000,20.000 L23.000,21.000 C23.000,22.104 22.105,23.000 21.000,23.000 ZM21.000,14.000 L20.000,14.000 C18.895,14.000 18.000,13.105 18.000,12.000 L18.000,11.000 C18.000,9.895 18.895,9.000 20.000,9.000 L21.000,9.000 C22.105,9.000 23.000,9.895 23.000,11.000 L23.000,12.000 C23.000,13.105 22.105,14.000 21.000,14.000 ZM21.000,5.000 L20.000,5.000 C18.895,5.000 18.000,4.104 18.000,3.000 L18.000,2.000 C18.000,0.895 18.895,-0.000 20.000,-0.000 L21.000,-0.000 C22.105,-0.000 23.000,0.895 23.000,2.000 L23.000,3.000 C23.000,4.104 22.105,5.000 21.000,5.000 ZM14.000,23.000 L9.000,23.000 C7.895,23.000 7.000,22.104 7.000,21.000 L7.000,20.000 C7.000,18.895 7.895,18.000 9.000,18.000 L14.000,18.000 C15.105,18.000 16.000,18.895 16.000,20.000 L16.000,21.000 C16.000,22.104 15.105,23.000 14.000,23.000 ZM14.000,14.000 L9.000,14.000 C7.895,14.000 7.000,13.105 7.000,12.000 L7.000,11.000 C7.000,9.895 7.895,9.000 9.000,9.000 L14.000,9.000 C15.105,9.000 16.000,9.895 16.000,11.000 L16.000,12.000 C16.000,13.105 15.105,14.000 14.000,14.000 ZM14.000,5.000 L9.000,5.000 C7.895,5.000 7.000,4.104 7.000,3.000 L7.000,2.000 C7.000,0.895 7.895,-0.000 9.000,-0.000 L14.000,-0.000 C15.105,-0.000 16.000,0.895 16.000,2.000 L16.000,3.000 C16.000,4.104 15.105,5.000 14.000,5.000 ZM3.000,23.000 L2.000,23.000 C0.895,23.000 -0.000,22.104 -0.000,21.000 L-0.000,20.000 C-0.000,18.895 0.895,18.000 2.000,18.000 L3.000,18.000 C4.104,18.000 5.000,18.895 5.000,20.000 L5.000,21.000 C5.000,22.104 4.104,23.000 3.000,23.000 ZM3.000,14.000 L2.000,14.000 C0.895,14.000 -0.000,13.105 -0.000,12.000 L-0.000,11.000 C-0.000,9.895 0.895,9.000 2.000,9.000 L3.000,9.000 C4.104,9.000 5.000,9.895 5.000,11.000 L5.000,12.000 C5.000,13.105 4.104,14.000 3.000,14.000 ZM3.000,5.000 L2.000,5.000 C0.895,5.000 -0.000,4.104 -0.000,3.000 L-0.000,2.000 C-0.000,0.895 0.895,-0.000 2.000,-0.000 L3.000,-0.000 C4.104,-0.000 5.000,0.895 5.000,2.000 L5.000,3.000 C5.000,4.104 4.104,5.000 3.000,5.000 Z"/></svg>