<svg version="1.1" id="Слой_1" xmlns="http://www.w3.org/2000/svg" x="0" y="0" viewBox="0 0 20 18" xml:space="preserve"><path d="M20.0000153,1.0001221V3c0,0.5524292-0.4478149,1.0001221-1.0001221,1.0001221h-11	C7.4475856,4.0001221,7.0000148,3.5524292,7.0000148,3V1.0001221C7.0000148,0.4476929,7.4475856,0,7.9998927,0h11	C19.5522003,0,20.0000153,0.4476929,20.0000153,1.0001221z M18.9998932,7h-11C7.4475856,7,7.0000148,7.4478149,7.0000148,8v2	c0,0.5523071,0.4475708,1,0.9998779,1h11c0.5523071,0,1.0001221-0.4476929,1.0001221-1V8	C20.0000153,7.4478149,19.5522003,7,18.9998932,7z M18.9998932,14.0001221h-11	c-0.5523071,0-0.9998779,0.4476929-0.9998779,0.9998779v2.0001221C7.0000148,17.5523071,7.4475856,18,7.9998927,18h11	c0.5523071,0,1.0001221-0.4476929,1.0001221-0.9998779V15C20.0000153,14.4478149,19.5522003,14.0001221,18.9998932,14.0001221z M2.9998925,0h-2C0.4475854,0,0.0000146,0.4476929,0.0000146,1.0001221V3c0,0.5524292,0.4475708,1.0001221,0.9998779,1.0001221h2	c0.5523071,0,1-0.4476929,1-1.0001221V1.0001221C3.9998925,0.4476929,3.5521996,0,2.9998925,0z M2.9998925,7h-2	C0.4475854,7,0.0000146,7.4478149,0.0000146,8v2c0,0.5523071,0.4475708,1,0.9998779,1h2c0.5523071,0,1-0.4476929,1-1V8	C3.9998925,7.4478149,3.5521996,7,2.9998925,7z M2.9998925,14.0001221h-2c-0.5523071,0-0.9998779,0.4476929-0.9998779,0.9998779	v2.0001221C0.0000146,17.5523071,0.4475854,18,0.9998925,18h2c0.5523071,0,1-0.4476929,1-0.9998779V15	C3.9998925,14.4478149,3.5521996,14.0001221,2.9998925,14.0001221z" fill-rule="evenodd" clip-rule="evenodd"/></svg>